<?xml version="1.0" standalone="no"?>
<!DOCTYPE svg PUBLIC "-//W3C//DTD SVG 20010904//EN"
 "http://www.w3.org/TR/2001/REC-SVG-20010904/DTD/svg10.dtd">
<svg version="1.0" xmlns="http://www.w3.org/2000/svg"
 width="854.000000pt" height="854.000000pt" viewBox="0 0 854.000000 854.000000"
 preserveAspectRatio="xMidYMid meet">
<metadata>
Created by potrace 1.11, written by Peter Selinger 2001-2013
</metadata>
<g transform="translate(0.000000,854.000000) scale(0.100000,-0.100000)"
fill="#000000" stroke="none">
<path d="M2980 8510 c0 -5 -10 -10 -23 -10 -12 0 -29 -9 -37 -20 -8 -11 -21
-20 -28 -20 -8 0 -27 -13 -42 -30 -15 -16 -35 -30 -43 -30 -8 0 -23 -11 -33
-25 -10 -14 -25 -25 -32 -25 -8 0 -27 -13 -42 -30 -15 -16 -35 -30 -44 -30 -9
0 -16 -4 -16 -10 0 -5 -7 -10 -15 -10 -8 0 -15 -4 -15 -10 0 -5 -9 -10 -20
-10 -11 0 -20 -3 -20 -7 0 -15 -47 -63 -61 -63 -8 0 -21 -9 -29 -20 -8 -11
-23 -20 -33 -20 -11 0 -32 -13 -47 -30 -15 -16 -33 -30 -40 -30 -14 0 -40 -25
-40 -39 0 -6 -9 -11 -21 -11 -12 0 -34 -13 -49 -30 -15 -16 -34 -30 -42 -30
-7 0 -20 -9 -28 -20 -8 -11 -21 -20 -30 -20 -17 -1 -50 -23 -50 -34 0 -12 -28
-36 -42 -36 -8 0 -20 -9 -28 -20 -8 -11 -22 -20 -32 -20 -10 0 -18 -4 -18 -10
0 -5 -6 -10 -13 -10 -7 0 -19 -9 -27 -20 -8 -11 -20 -20 -28 -20 -16 0 -42
-24 -42 -39 0 -6 -9 -11 -20 -11 -11 0 -20 -4 -20 -10 0 -5 -6 -10 -13 -10 -7
0 -19 -9 -27 -20 -8 -11 -21 -20 -30 -20 -9 0 -22 -9 -30 -20 -8 -11 -21 -20
-28 -20 -8 0 -29 -16 -48 -35 -18 -19 -39 -35 -47 -35 -7 0 -19 -9 -27 -20 -8
-11 -21 -20 -28 -20 -8 0 -27 -13 -42 -30 -15 -16 -36 -30 -45 -30 -19 0 -45
-23 -45 -39 0 -6 -7 -11 -16 -11 -9 0 -29 -13 -44 -30 -15 -16 -36 -30 -47
-30 -10 0 -25 -9 -33 -20 -8 -11 -20 -20 -28 -20 -15 0 -62 -45 -62 -60 0 -5
-10 -10 -23 -10 -12 0 -29 -9 -37 -20 -8 -11 -21 -20 -28 -20 -8 0 -27 -13
-42 -30 -15 -16 -35 -30 -44 -30 -9 0 -16 -4 -16 -10 0 -5 -5 -10 -10 -10 -11
0 -25 -10 -65 -47 -13 -13 -29 -23 -36 -23 -6 0 -24 -13 -39 -30 -15 -16 -36
-30 -47 -30 -10 0 -25 -9 -33 -20 -8 -11 -22 -20 -32 -20 -10 0 -18 -5 -18
-10 0 -18 -48 -60 -67 -60 -10 0 -25 -9 -33 -20 -8 -11 -21 -20 -28 -20 -8 0
-27 -13 -42 -30 -15 -16 -35 -30 -43 -30 -8 0 -23 -11 -33 -25 -10 -14 -25
-25 -32 -25 -18 0 -62 -46 -62 -65 0 -8 -4 -15 -10 -15 -7 0 -10 -868 -10
-2585 0 -1717 3 -2585 10 -2585 6 0 10 -9 10 -20 0 -13 7 -20 18 -20 10 0 24
-9 32 -20 8 -11 22 -20 32 -20 10 0 18 -4 18 -10 0 -5 11 -10 25 -10 14 0 25
-4 25 -10 0 -5 8 -10 18 -10 10 0 24 -9 32 -20 16 -22 64 -50 87 -50 7 0 13
-4 13 -10 0 -5 9 -10 20 -10 11 0 20 -4 20 -10 0 -5 9 -10 20 -10 11 0 20 -4
20 -10 0 -5 9 -10 20 -10 11 0 20 -4 20 -10 0 -5 7 -10 15 -10 8 0 15 -4 15
-10 0 -5 9 -10 20 -10 11 0 20 -4 20 -10 0 -5 9 -10 20 -10 11 0 20 -7 20 -15
0 -8 9 -15 20 -15 11 0 20 -4 20 -10 0 -5 11 -10 25 -10 14 0 25 -4 25 -10 0
-5 8 -10 18 -10 10 0 24 -9 32 -20 8 -11 22 -20 32 -20 10 0 18 -4 18 -10 0
-5 9 -10 20 -10 11 0 20 -4 20 -10 0 -5 11 -10 25 -10 16 0 25 -6 25 -15 0 -8
8 -15 18 -15 10 0 24 -9 32 -20 8 -11 22 -20 32 -20 9 0 20 -4 23 -10 3 -5 15
-10 26 -10 10 0 19 -4 19 -10 0 -5 9 -10 20 -10 11 0 20 -4 20 -10 0 -5 9 -10
20 -10 11 0 20 -4 20 -10 0 -5 9 -10 20 -10 11 0 20 -4 20 -10 0 -5 7 -10 15
-10 8 0 15 -7 15 -15 0 -8 9 -15 20 -15 11 0 20 -4 20 -10 0 -5 9 -10 20 -10
11 0 20 -4 20 -10 0 -5 9 -10 20 -10 11 0 20 -4 20 -10 0 -5 11 -10 25 -10 14
0 25 -4 25 -10 0 -5 8 -10 18 -10 10 0 24 -9 32 -20 8 -11 22 -20 32 -20 10 0
18 -4 18 -10 0 -5 11 -10 25 -10 16 0 25 -6 25 -15 0 -8 9 -15 20 -15 11 0 20
-4 20 -10 0 -5 8 -10 18 -10 10 0 24 -9 32 -20 8 -11 22 -20 32 -20 10 0 18
-4 18 -10 0 -5 11 -10 25 -10 14 0 25 -4 25 -10 0 -5 9 -10 20 -10 11 0 20 -4
20 -10 0 -5 9 -10 20 -10 11 0 20 -4 20 -10 0 -5 16 -17 35 -26 19 -9 35 -20
35 -25 0 -5 9 -9 20 -9 11 0 20 -4 20 -10 0 -5 9 -10 20 -10 11 0 20 -4 20
-10 0 -5 9 -10 20 -10 11 0 20 -4 20 -10 0 -5 11 -10 25 -10 14 0 25 -4 25
-10 0 -5 7 -10 15 -10 9 0 27 -10 40 -22 44 -42 54 -48 75 -48 11 0 20 -4 20
-10 0 -5 9 -10 20 -10 11 0 20 -4 20 -10 0 -5 9 -10 20 -10 11 0 20 -4 20 -10
0 -5 8 -10 18 -10 10 0 24 -9 32 -20 8 -11 25 -20 37 -20 13 0 23 -4 23 -10 0
-5 9 -10 20 -10 11 0 20 -7 20 -15 0 -8 9 -15 20 -15 11 0 20 -4 20 -10 0 -5
9 -10 20 -10 11 0 20 -4 20 -10 0 -5 7 -10 15 -10 8 0 15 -4 15 -10 0 -5 9
-10 20 -10 11 0 20 -4 20 -10 0 -5 9 -10 20 -10 11 0 20 -4 20 -10 0 -5 9 -10
20 -10 11 0 20 -4 20 -10 0 -5 11 -10 25 -10 14 0 25 -4 25 -10 0 -6 33 -10
80 -10 47 0 80 4 80 10 0 6 14 10 30 10 17 0 30 5 30 10 0 6 14 10 30 10 17 0
30 5 30 10 0 6 11 10 25 10 14 0 25 5 25 10 0 6 14 10 30 10 17 0 30 5 30 10
0 6 14 10 30 10 17 0 30 5 30 10 0 6 11 10 25 10 14 0 25 5 25 10 0 6 14 10
30 10 20 0 30 5 30 15 0 8 9 15 20 15 11 0 20 5 20 10 0 6 16 10 35 10 19 0
35 5 35 10 0 6 14 10 30 10 17 0 30 5 30 10 0 6 9 10 20 10 11 0 20 5 20 10 0
6 16 10 35 10 19 0 35 5 35 10 0 6 14 10 30 10 17 0 30 5 30 10 0 6 9 10 20
10 11 0 20 5 20 10 0 6 14 10 30 10 18 0 33 6 36 15 4 8 15 15 25 15 10 0 19
5 19 10 0 6 14 10 30 10 17 0 30 5 30 10 0 6 16 10 35 10 19 0 35 5 35 10 0 6
9 10 20 10 11 0 20 5 20 10 0 6 14 10 30 10 17 0 30 5 30 10 0 6 16 10 35 10
19 0 35 5 35 10 0 6 9 10 20 10 11 0 20 5 20 10 0 6 9 10 19 10 11 0 26 7 35
15 8 8 28 15 45 15 17 0 31 5 31 10 0 6 9 10 20 10 11 0 20 5 20 10 0 6 14 10
30 10 17 0 30 5 30 10 0 6 11 10 25 10 14 0 25 5 25 10 0 6 14 10 30 10 17 0
30 5 30 10 0 6 14 10 30 10 17 0 30 5 30 10 0 6 11 10 25 10 16 0 25 6 25 15
0 10 10 15 30 15 17 0 30 5 30 10 0 6 16 10 35 10 19 0 35 5 35 10 0 6 9 10
20 10 11 0 20 5 20 10 0 6 14 10 30 10 17 0 30 5 30 10 0 6 9 10 20 10 11 0
20 5 20 10 0 6 16 10 35 10 19 0 35 5 35 10 0 6 14 10 30 10 17 0 30 5 30 10
0 6 9 10 20 10 11 0 23 7 26 15 4 9 19 15 35 15 16 0 29 5 29 10 0 6 14 10 30
10 17 0 30 5 30 10 0 6 11 10 25 10 14 0 25 5 25 10 0 6 14 10 30 10 17 0 30
5 30 10 0 6 14 10 30 10 17 0 30 5 30 10 0 6 11 10 25 10 14 0 25 5 25 10 0 6
14 10 30 10 17 0 30 5 30 10 0 6 9 10 20 10 11 0 20 7 20 15 0 10 11 15 35 15
19 0 35 5 35 10 0 6 14 10 30 10 17 0 30 5 30 10 0 6 9 10 20 10 11 0 20 5 20
10 0 6 16 10 35 10 19 0 35 5 35 10 0 6 14 10 30 10 17 0 30 5 30 10 0 6 9 10
20 10 11 0 20 5 20 10 0 6 16 10 35 10 24 0 35 5 35 15 0 8 9 15 20 15 11 0
20 5 20 10 0 6 14 10 30 10 17 0 30 5 30 10 0 6 16 10 35 10 19 0 35 5 35 10
0 6 9 10 20 10 11 0 20 5 20 10 0 6 14 10 30 10 17 0 30 5 30 10 0 6 16 10 35
10 19 0 35 5 35 10 0 6 9 10 20 10 11 0 20 5 20 10 0 6 14 10 30 10 20 0 30 5
30 15 0 9 9 15 25 15 14 0 25 5 25 10 0 6 14 10 30 10 17 0 30 5 30 10 0 6 14
10 30 10 17 0 30 5 30 10 0 6 11 10 25 10 14 0 25 5 25 10 0 6 14 10 30 10 17
0 30 5 30 10 0 6 13 10 29 10 17 0 33 5 36 10 3 6 15 10 26 10 10 0 19 5 19
10 0 6 14 10 30 10 20 0 30 5 30 15 0 10 11 15 35 15 19 0 35 5 35 10 0 6 9
10 20 10 11 0 20 5 20 10 0 6 14 10 30 10 17 0 30 5 30 10 0 6 9 10 19 10 11
0 23 5 26 10 3 6 19 10 36 10 16 0 29 5 29 10 0 6 14 10 30 10 17 0 30 5 30
10 0 6 9 10 19 10 11 0 23 5 26 10 3 6 15 10 25 10 10 0 25 7 34 15 8 8 26 15
40 15 14 0 26 5 26 10 0 6 11 10 25 10 14 0 25 5 25 10 0 6 14 10 30 10 17 0
30 5 30 10 0 6 9 10 20 10 11 0 20 5 20 10 0 6 16 10 35 10 19 0 35 5 35 10 0
6 14 10 30 10 17 0 30 5 30 10 0 6 9 10 20 10 11 0 20 7 20 15 0 10 11 15 35
15 19 0 35 5 35 10 0 6 14 10 30 10 17 0 30 5 30 10 0 6 9 10 20 10 11 0 20 5
20 10 0 6 16 10 35 10 19 0 35 5 35 10 0 6 9 10 20 10 11 0 20 5 20 10 0 6 7
10 16 10 22 0 44 25 44 49 0 12 5 21 10 21 7 0 10 535 10 1585 l0 1586 -35 34
c-19 19 -41 35 -50 35 -8 0 -15 5 -15 10 0 6 -20 10 -45 10 -33 0 -45 4 -45
15 0 10 -10 15 -30 15 -16 0 -30 5 -30 10 0 6 -13 10 -29 10 -17 0 -33 5 -36
10 -3 6 -19 10 -36 10 -16 0 -29 5 -29 10 0 6 -18 10 -40 10 -22 0 -40 5 -40
10 0 6 -16 10 -35 10 -19 0 -35 5 -35 10 0 6 -13 10 -30 10 -16 0 -30 5 -30
10 0 6 -16 10 -35 10 -19 0 -35 5 -35 10 0 6 -18 10 -40 10 -29 0 -40 4 -40
15 0 10 -10 15 -29 15 -17 0 -33 5 -36 10 -3 6 -19 10 -36 10 -16 0 -29 5 -29
10 0 6 -13 10 -30 10 -16 0 -30 5 -30 10 0 6 -20 10 -45 10 -25 0 -45 5 -45
10 0 6 -13 10 -30 10 -16 0 -30 5 -30 10 0 6 -16 10 -35 10 -19 0 -35 5 -35
10 0 6 -13 10 -30 10 -16 0 -30 5 -30 10 0 6 -18 10 -39 10 -25 0 -41 5 -45
15 -3 9 -18 15 -36 15 -16 0 -30 5 -30 10 0 6 -13 10 -30 10 l-30 0 0 525 0
526 -25 24 c-13 14 -29 25 -35 25 -5 0 -10 7 -10 15 0 8 -9 15 -20 15 -11 0
-20 5 -20 10 0 6 -9 10 -20 10 -11 0 -20 5 -20 10 0 6 -9 10 -20 10 -11 0 -20
5 -20 10 0 6 -11 10 -25 10 -14 0 -25 5 -25 10 0 6 -9 10 -20 10 -11 0 -20 5
-20 10 0 6 -9 10 -20 10 -11 0 -20 5 -20 10 0 6 -9 10 -20 10 -11 0 -20 4 -20
9 0 5 -11 12 -25 15 -14 4 -25 11 -25 16 0 6 -9 10 -20 10 -11 0 -20 5 -20 10
0 6 -9 10 -20 10 -11 0 -20 5 -20 10 0 6 -9 10 -19 10 -11 0 -23 5 -26 10 -3
6 -15 10 -26 10 -10 0 -19 5 -19 10 0 6 -9 10 -20 10 -11 0 -20 5 -20 10 0 6
-9 10 -20 10 -11 0 -20 5 -20 10 0 6 -9 10 -21 10 -11 0 -27 6 -34 13 -35 31
-45 37 -60 37 -8 0 -15 5 -15 10 0 6 -9 10 -20 10 -11 0 -20 5 -20 10 0 6 -11
10 -25 10 -14 0 -25 5 -25 10 0 6 -9 10 -20 10 -11 0 -20 5 -20 10 0 6 -9 10
-20 10 -11 0 -20 5 -20 10 0 6 -9 10 -20 10 -11 0 -20 5 -20 10 0 6 -11 10
-25 10 -16 0 -25 6 -25 15 0 10 -10 15 -30 15 -16 0 -30 5 -30 10 0 6 -9 10
-20 10 -11 0 -20 5 -20 10 0 6 -11 10 -25 10 -14 0 -25 5 -25 10 0 6 -9 10
-20 10 -11 0 -20 5 -20 10 0 6 -9 10 -20 10 -11 0 -20 5 -20 10 0 6 -9 10 -20
10 -11 0 -20 5 -20 10 0 6 -11 10 -25 10 -14 0 -25 5 -25 10 0 6 -9 10 -20 10
-11 0 -20 7 -20 15 0 8 -9 15 -20 15 -11 0 -20 5 -20 10 0 6 -9 10 -20 10 -11
0 -20 5 -20 10 0 6 -11 10 -25 10 -14 0 -25 5 -25 10 0 6 -9 10 -20 10 -11 0
-20 5 -20 10 0 6 -9 10 -20 10 -11 0 -20 5 -20 10 0 6 -9 10 -20 10 -11 0 -20
5 -20 10 0 6 -11 10 -25 10 -16 0 -25 6 -25 15 0 8 -9 15 -20 15 -11 0 -20 5
-20 10 0 6 -9 10 -20 10 -11 0 -20 5 -20 10 0 6 -9 10 -20 10 -11 0 -20 5 -20
10 0 6 -11 10 -25 10 -14 0 -25 5 -25 10 0 6 -9 10 -20 10 -11 0 -20 5 -20 10
0 6 -9 10 -20 10 -11 0 -20 5 -20 10 0 6 -9 10 -20 10 -11 0 -20 5 -20 10 0 6
-11 10 -25 10 -16 0 -25 6 -25 15 0 8 -9 15 -20 15 -11 0 -20 5 -20 10 0 6 -9
10 -20 10 -11 0 -20 5 -20 10 0 6 -11 10 -25 10 -14 0 -25 5 -25 10 0 6 -9 10
-20 10 -11 0 -20 5 -20 10 0 6 -9 10 -20 10 -11 0 -20 5 -20 10 0 6 -9 10 -20
10 -11 0 -20 5 -20 10 0 6 -11 10 -25 10 -14 0 -25 5 -25 10 0 6 -9 10 -20 10
-11 0 -20 7 -20 15 0 8 -9 15 -20 15 -11 0 -20 5 -20 10 0 6 -9 10 -20 10 -11
0 -20 5 -20 10 0 6 -11 10 -25 10 -14 0 -25 5 -25 10 0 6 -9 10 -20 10 -11 0
-20 5 -20 10 0 6 -9 10 -20 10 -11 0 -20 5 -20 10 0 6 -9 10 -20 10 -11 0 -20
5 -20 10 0 6 -9 10 -21 10 -11 0 -27 6 -34 13 -35 31 -45 37 -60 37 -8 0 -15
5 -15 10 0 6 -9 10 -19 10 -11 0 -23 5 -26 10 -3 6 -15 10 -26 10 -10 0 -19 5
-19 10 0 6 -9 10 -20 10 -11 0 -20 5 -20 10 0 6 -9 10 -20 10 -11 0 -20 5 -20
10 0 6 -9 10 -20 10 -11 0 -20 5 -20 10 0 6 -9 10 -21 10 -11 0 -27 6 -34 13
-37 32 -46 37 -70 37 -14 0 -25 5 -25 10 0 6 -11 10 -25 10 -14 0 -25 5 -25
10 0 6 -9 10 -20 10 -11 0 -20 5 -20 10 0 6 -9 10 -20 10 -11 0 -20 5 -20 10
0 6 -9 10 -20 10 -11 0 -20 5 -20 10 0 6 -11 10 -25 10 -14 0 -25 5 -25 10 0
6 -9 10 -20 10 -11 0 -20 7 -20 15 0 8 -9 15 -20 15 -11 0 -20 5 -20 10 0 6
-9 10 -20 10 -11 0 -20 5 -20 10 0 6 -11 10 -25 10 -14 0 -25 5 -25 10 0 6 -9
10 -20 10 -11 0 -20 5 -20 10 0 6 -9 10 -20 10 -11 0 -20 5 -20 10 0 6 -9 10
-20 10 -11 0 -20 5 -20 10 0 6 -33 10 -80 10 -47 0 -80 -4 -80 -10z m470 -860
c0 -5 9 -10 20 -10 11 0 20 -4 20 -10 0 -5 14 -10 30 -10 17 0 30 -4 30 -10 0
-5 9 -10 20 -10 11 0 20 -4 20 -10 0 -5 11 -10 25 -10 14 0 25 -4 25 -10 0 -5
14 -10 30 -10 20 0 30 -5 30 -15 0 -8 9 -15 20 -15 11 0 20 -4 20 -10 0 -5 11
-10 25 -10 14 0 25 -4 25 -10 0 -5 9 -10 20 -10 11 0 20 -4 20 -10 0 -5 14
-10 30 -10 17 0 30 -4 30 -10 0 -5 11 -10 25 -10 14 0 25 -4 25 -10 0 -5 9
-10 20 -10 11 0 20 -4 20 -10 0 -5 14 -10 30 -10 17 0 30 -4 30 -10 0 -5 9
-10 19 -10 10 0 21 -7 25 -15 3 -8 15 -15 26 -15 11 0 20 -4 20 -10 0 -5 14
-10 30 -10 17 0 30 -4 30 -10 0 -5 7 -10 16 -10 44 0 44 1 44 -564 l0 -536
-45 0 c-25 0 -45 5 -45 10 0 6 -16 10 -35 10 -24 0 -35 5 -35 15 0 10 -10 15
-30 15 -16 0 -30 5 -30 10 0 6 -13 10 -29 10 -17 0 -33 5 -36 10 -3 6 -24 10
-46 10 -21 0 -39 5 -39 10 0 6 -13 10 -30 10 -16 0 -30 5 -30 10 0 6 -16 10
-35 10 -19 0 -35 5 -35 10 0 6 -13 10 -30 10 -16 0 -30 5 -30 10 0 6 -20 10
-45 10 -33 0 -45 4 -45 15 0 10 -10 15 -30 15 -16 0 -30 5 -30 10 0 6 -13 10
-30 10 -16 0 -30 5 -30 10 0 6 -16 10 -35 10 -19 0 -35 5 -35 10 0 6 -9 10
-20 10 -20 0 -20 7 -20 590 l0 590 40 0 c22 0 40 -4 40 -10z m-770 -665 c0
-607 1 -595 -49 -595 -12 0 -21 -4 -21 -10 0 -5 -9 -10 -20 -10 -11 0 -20 -4
-20 -10 0 -5 -9 -10 -20 -10 -11 0 -20 -4 -20 -10 0 -5 -9 -10 -20 -10 -11 0
-20 -4 -20 -10 0 -5 -16 -10 -35 -10 -19 0 -35 -4 -35 -10 0 -5 -9 -10 -20
-10 -11 0 -20 -4 -20 -10 0 -5 -9 -10 -20 -10 -11 0 -20 -7 -20 -15 0 -9 -9
-15 -25 -15 -14 0 -25 -4 -25 -10 0 -5 -13 -10 -30 -10 -16 0 -30 -4 -30 -10
0 -5 -9 -10 -20 -10 -11 0 -20 -4 -20 -10 0 -5 -9 -10 -20 -10 -11 0 -20 -4
-20 -10 0 -5 -12 -10 -26 -10 -55 0 -54 -15 -54 539 0 334 3 511 10 511 6 0
10 7 10 15 0 8 9 15 20 15 11 0 20 5 20 10 0 6 10 10 23 10 12 0 29 9 37 20 8
11 21 20 30 20 9 0 22 9 30 20 8 11 22 20 32 20 10 0 18 5 18 10 0 6 8 10 19
10 10 0 27 11 37 25 10 14 26 25 34 25 9 0 22 9 30 20 8 11 22 20 32 20 10 0
18 5 18 10 0 6 10 10 23 10 12 0 29 9 37 20 8 11 20 20 28 20 16 0 42 24 42
39 0 6 11 11 25 11 14 0 25 5 25 11 0 6 7 4 15 -5 13 -13 15 -91 15 -581z
m2240 25 c0 -5 14 -10 30 -10 17 0 30 -4 30 -10 0 -5 9 -10 20 -10 11 0 20 -4
20 -10 0 -5 9 -10 20 -10 11 0 20 -4 20 -10 0 -5 16 -10 35 -10 19 0 35 -4 35
-10 0 -5 9 -10 20 -10 11 0 20 -4 20 -10 0 -5 9 -10 19 -10 10 0 21 -7 25 -15
3 -9 18 -15 36 -15 16 0 30 -4 30 -10 0 -5 9 -10 20 -10 11 0 20 -4 20 -10 0
-5 9 -10 20 -10 11 0 20 -4 20 -10 0 -5 11 -10 25 -10 14 0 25 -4 25 -10 0 -5
14 -10 30 -10 17 0 30 -4 30 -10 0 -5 7 -10 16 -10 44 0 44 -5 44 -475 0 -374
-2 -449 -14 -461 -17 -16 -36 -19 -36 -4 0 6 -16 10 -35 10 -19 0 -35 5 -35
10 0 6 -13 10 -30 10 -16 0 -30 5 -30 10 0 6 -18 10 -40 10 -22 0 -40 5 -40
10 0 6 -16 10 -35 10 -24 0 -35 5 -35 15 0 10 -10 15 -30 15 -16 0 -30 5 -30
10 0 6 -16 10 -35 10 -19 0 -35 5 -35 10 0 6 -18 10 -40 10 -22 0 -40 5 -40
10 0 6 -16 10 -35 10 -19 0 -35 5 -35 10 0 6 -9 10 -20 10 -20 0 -20 7 -20
490 0 379 3 494 13 505 14 17 27 19 27 5z m-3240 -551 c0 -515 1 -509 -49
-509 -12 0 -21 -4 -21 -10 0 -5 -9 -10 -20 -10 -11 0 -20 -7 -20 -15 0 -10
-10 -15 -30 -15 -16 0 -30 -4 -30 -10 0 -5 -11 -10 -25 -10 -14 0 -25 -4 -25
-10 0 -5 -9 -10 -20 -10 -11 0 -20 -4 -20 -10 0 -5 -9 -10 -20 -10 -11 0 -20
-4 -20 -10 0 -5 -13 -10 -30 -10 -16 0 -30 -4 -30 -10 0 -5 -11 -10 -25 -10
-14 0 -25 -4 -25 -10 0 -5 -7 -10 -15 -10 -8 0 -15 9 -15 20 0 11 -4 20 -10
20 -7 0 -10 147 -10 420 0 273 3 420 10 420 6 0 10 9 10 20 0 12 7 20 16 20
18 0 44 23 44 39 0 6 11 11 25 11 14 0 25 5 25 10 0 6 8 10 18 10 10 0 24 9
32 20 8 11 21 20 30 20 9 0 22 9 30 20 8 11 25 20 37 20 13 0 23 5 23 10 0 6
6 10 14 10 7 0 22 11 32 25 10 14 27 25 36 25 10 0 18 5 18 10 0 6 14 10 30
10 l30 0 0 -481z m4356 71 c19 0 34 -4 34 -10 0 -5 9 -10 20 -10 11 0 20 -4
20 -10 0 -5 9 -10 20 -10 11 0 20 -4 20 -10 0 -5 14 -10 30 -10 17 0 30 -4 30
-10 0 -5 11 -10 25 -10 14 0 25 -4 25 -10 0 -5 9 -10 20 -10 11 0 20 -4 20
-10 0 -5 9 -10 19 -10 10 0 21 -7 25 -15 3 -9 18 -15 36 -15 16 0 30 -4 30
-10 0 -5 7 -10 16 -10 43 0 44 -9 44 -410 0 -317 -2 -384 -14 -396 -16 -16
-86 -19 -86 -4 0 6 -13 10 -30 10 -16 0 -30 5 -30 10 0 6 -13 10 -29 10 -16 0
-31 6 -35 15 -3 9 -18 15 -36 15 -16 0 -30 5 -30 10 0 6 -18 10 -40 10 -22 0
-40 5 -40 10 0 6 -16 10 -35 10 -19 0 -35 5 -35 10 0 6 -7 10 -16 10 -43 0
-44 7 -44 440 0 315 3 414 13 424 6 8 14 10 15 5 2 -5 19 -9 38 -9z m-5086
-60 c0 -11 5 -20 10 -20 6 0 10 -135 10 -385 l0 -386 -25 -24 c-13 -14 -31
-25 -40 -25 -8 0 -15 -4 -15 -10 0 -5 -9 -10 -20 -10 -11 0 -20 -7 -20 -15 0
-9 -9 -15 -25 -15 -14 0 -25 -4 -25 -10 0 -5 -13 -10 -30 -10 -16 0 -30 -4
-30 -10 0 -5 -9 -10 -20 -10 -11 0 -20 -4 -20 -10 0 -5 -11 -10 -25 -10 -14 0
-25 -4 -25 -10 0 -15 -19 -12 -36 4 -12 12 -14 79 -14 396 0 401 1 410 44 410
9 0 16 5 16 10 0 6 10 10 23 10 12 0 29 9 37 20 8 11 20 20 26 20 6 0 20 11
30 25 10 14 27 25 36 25 10 0 18 5 18 10 0 6 10 10 23 10 12 0 29 9 37 20 8
11 25 20 37 20 16 0 23 -6 23 -20z m2520 -1080 c0 -6 27 -10 60 -10 33 0 60
-4 60 -10 0 -5 25 -10 55 -10 30 0 55 -4 55 -10 0 -6 28 -10 65 -10 37 0 65
-4 65 -10 0 -5 25 -10 55 -10 30 0 55 -4 55 -10 0 -6 27 -10 60 -10 33 0 60
-4 60 -10 0 -5 25 -10 55 -10 30 0 55 -4 55 -10 0 -5 18 -10 40 -10 l40 0 0
-550 0 -550 -110 0 c-67 0 -110 4 -110 10 0 6 -67 10 -180 10 -113 0 -180 4
-180 10 0 6 -52 10 -136 10 -104 0 -139 3 -150 14 -20 20 -21 1149 -1 1171 14
16 87 20 87 5z m-790 -610 c0 -573 0 -580 -20 -580 -11 0 -20 -4 -20 -10 0 -6
-50 -10 -130 -10 -80 0 -130 -4 -130 -10 0 -6 -48 -10 -123 -10 -82 0 -127 -4
-135 -12 -9 -9 -12 -9 -12 0 0 7 -9 12 -20 12 -20 0 -20 7 -20 525 0 518 0
525 20 525 11 0 20 5 20 10 0 6 20 10 45 10 33 0 45 4 45 15 0 11 11 15 40 15
22 0 40 5 40 10 0 6 20 10 45 10 25 0 45 5 45 10 0 6 18 10 40 10 22 0 40 5
40 10 0 6 16 10 35 10 19 0 35 5 35 10 0 6 18 10 40 10 22 0 40 5 40 10 0 6
18 10 40 10 l40 0 0 -580z m2300 340 c0 -6 28 -10 65 -10 36 0 65 -4 65 -9 0
-5 22 -11 50 -15 27 -4 52 -11 55 -16 3 -6 33 -10 66 -10 33 0 59 -4 59 -10 0
-5 25 -10 55 -10 30 0 55 -4 55 -10 0 -5 12 -10 26 -10 55 0 54 9 54 -475 0
-374 -2 -449 -14 -461 -17 -16 -126 -20 -126 -4 0 6 -57 10 -150 10 -127 0
-150 2 -150 15 0 12 -17 15 -91 15 -65 0 -94 4 -105 14 -19 20 -21 959 -1 981
14 16 87 20 87 5z m-3314 -24 c12 -12 14 -92 14 -495 l0 -481 -30 0 c-18 0
-33 -6 -36 -15 -5 -12 -29 -15 -130 -15 -76 0 -124 -4 -124 -10 0 -6 -27 -10
-60 -10 -53 0 -60 2 -60 20 0 11 -4 20 -10 20 -7 0 -10 148 -10 425 0 277 3
425 10 425 6 0 10 9 10 20 0 16 7 20 30 20 17 0 30 5 30 10 0 6 20 10 45 10
25 0 45 5 45 10 0 6 18 10 40 10 22 0 40 5 40 10 0 6 20 10 45 10 25 0 45 4
45 10 0 5 18 13 40 16 22 4 40 10 40 15 0 13 9 11 26 -5z m4378 -171 c4 -11
20 -15 56 -15 27 0 50 -4 50 -10 0 -6 28 -10 65 -10 37 0 65 -4 65 -10 0 -5
25 -10 55 -10 30 0 55 -4 55 -10 0 -5 12 -10 26 -10 54 0 54 3 54 -410 0 -317
-2 -384 -14 -396 -17 -17 -186 -21 -186 -4 0 6 -52 10 -136 10 -104 0 -139 3
-150 14 -19 20 -21 839 -1 861 16 19 53 19 61 0z m-5096 -40 c22 -25 22 -29
22 -410 0 -250 -4 -385 -10 -385 -5 0 -10 -9 -10 -20 0 -18 -7 -20 -60 -20
-33 0 -60 -4 -60 -10 0 -17 -199 -13 -216 4 -12 12 -14 77 -14 386 0 390 1
400 44 400 9 0 16 5 16 10 0 6 20 10 45 10 25 0 45 5 45 10 0 6 18 10 40 10
22 0 40 5 40 10 0 6 16 10 35 10 19 0 35 5 35 10 0 18 26 10 48 -15z m6142
-155 c0 -6 28 -10 65 -10 37 0 65 -4 65 -10 0 -5 16 -10 36 -10 65 0 64 8 64
-369 l0 -341 -155 0 c-97 0 -155 4 -155 10 0 6 -13 10 -30 10 l-30 0 0 365 0
365 70 0 c40 0 70 -4 70 -10z m550 -100 c0 -6 32 -10 75 -10 43 0 75 -4 75
-10 0 -5 14 -10 30 -10 l30 0 0 -315 c0 -203 -4 -315 -10 -315 -5 0 -10 -7
-10 -15 0 -11 -12 -15 -45 -15 -33 0 -45 4 -45 15 0 12 -16 15 -82 15 -53 1
-89 5 -100 14 -17 12 -18 40 -18 335 l0 321 50 0 c28 0 50 -4 50 -10z m196
-1197 c10 -14 13 -86 14 -330 l0 -313 -40 0 c-22 0 -40 -4 -40 -10 0 -5 -25
-10 -55 -10 -30 0 -55 -4 -55 -10 0 -6 -27 -10 -60 -10 l-60 0 0 335 0 335 85
0 c69 0 85 3 85 15 0 23 108 21 126 -2z m-516 -374 c0 -377 1 -369 -64 -369
-20 0 -36 -4 -36 -10 0 -5 -25 -10 -55 -10 -30 0 -55 -4 -55 -10 0 -5 -23 -10
-50 -10 -36 0 -52 -4 -56 -15 -4 -8 -12 -15 -20 -15 -8 0 -14 7 -14 15 0 8 -4
15 -10 15 -6 0 -10 128 -10 365 l0 365 65 0 c37 0 65 4 65 10 0 6 47 10 120
10 l120 0 0 -341z m-6620 291 c0 -6 42 -10 105 -10 63 0 105 -4 105 -10 0 -5
7 -10 16 -10 43 0 44 -8 44 -420 0 -438 2 -426 -69 -421 -20 1 -40 6 -45 11
-6 6 -27 10 -48 10 -21 0 -38 5 -38 10 0 6 -13 10 -30 10 -16 0 -30 5 -30 10
0 6 -18 10 -41 10 -72 0 -69 -15 -69 410 0 290 3 384 13 395 14 16 87 20 87 5z
m5546 -24 c12 -12 14 -160 14 -1005 0 -989 0 -991 -20 -991 -11 0 -23 -7 -26
-15 -4 -8 -15 -15 -25 -15 -10 0 -19 -4 -19 -10 0 -5 -13 -10 -30 -10 -16 0
-30 -4 -30 -10 0 -5 -16 -10 -35 -10 -19 0 -35 -4 -35 -10 0 -5 -9 -10 -20
-10 -11 0 -20 -4 -20 -10 0 -5 -13 -10 -30 -10 -16 0 -30 -4 -30 -10 0 -5 -13
-10 -29 -10 -17 0 -33 -4 -36 -10 -3 -5 -15 -10 -26 -10 -10 0 -19 -7 -19 -15
0 -10 -10 -15 -30 -15 -16 0 -30 -4 -30 -10 0 -5 -11 -10 -25 -10 -14 0 -25
-4 -25 -10 0 -5 -13 -10 -30 -10 -16 0 -30 -4 -30 -10 0 -5 -13 -10 -30 -10
-16 0 -30 -4 -30 -10 0 -5 -11 -10 -25 -10 -14 0 -25 -4 -25 -10 0 -15 -60
-12 -76 4 -12 12 -14 172 -14 1098 0 1072 0 1084 20 1098 11 8 20 20 20 27 0
10 37 13 160 13 100 0 160 4 160 10 0 6 60 10 160 10 100 0 160 4 160 10 0 16
89 12 106 -4z m-4882 -41 c4 -12 26 -15 106 -15 60 0 100 -4 100 -10 0 -5 25
-10 55 -10 l55 0 0 -481 c0 -403 -2 -483 -14 -495 -17 -16 -46 -19 -46 -4 0 6
-18 10 -40 10 -22 0 -40 5 -40 10 0 6 -16 10 -35 10 -24 0 -35 5 -35 15 0 11
-11 15 -40 15 -22 0 -40 5 -40 10 0 6 -16 10 -35 10 -19 0 -35 5 -35 10 0 6
-18 10 -40 10 -33 0 -40 3 -40 20 0 11 -4 20 -10 20 -7 0 -10 147 -10 420 0
273 3 420 10 420 6 0 10 11 10 25 0 24 3 25 59 25 43 0 60 -4 65 -15z m3571
-60 l25 -24 0 -1181 c0 -780 -3 -1180 -10 -1180 -5 0 -10 -7 -10 -15 0 -10
-11 -15 -35 -15 -19 0 -35 -4 -35 -10 0 -5 -13 -10 -30 -10 -16 0 -30 -4 -30
-10 0 -5 -9 -10 -20 -10 -11 0 -20 -4 -20 -10 0 -5 -16 -10 -35 -10 -19 0 -35
-4 -35 -10 0 -5 -9 -10 -20 -10 -11 0 -20 -4 -20 -10 0 -5 -13 -10 -30 -10
-16 0 -30 -4 -30 -10 0 -5 -13 -10 -29 -10 -17 0 -33 -5 -36 -10 -3 -6 -15
-10 -26 -10 -10 0 -19 -7 -19 -15 0 -10 -10 -15 -30 -15 -16 0 -30 -4 -30 -10
0 -5 -16 -10 -35 -10 -19 0 -35 -4 -35 -10 0 -5 -9 -10 -20 -10 -11 0 -20 -4
-20 -10 0 -5 -16 -10 -35 -10 -19 0 -35 -4 -35 -10 0 -5 -13 -10 -30 -10 -16
0 -30 -4 -30 -10 0 -5 -9 -10 -20 -10 -11 0 -20 -4 -20 -10 0 -5 -14 -10 -30
-10 -18 0 -33 -6 -36 -15 -4 -8 -15 -15 -25 -15 -10 0 -19 -4 -19 -10 0 -5
-13 -10 -30 -10 -16 0 -30 -4 -30 -10 0 -5 -16 -10 -35 -10 -19 0 -35 -4 -35
-10 0 -5 -9 -10 -20 -10 -11 0 -20 -4 -20 -10 0 -15 -39 -12 -56 4 -21 22 -21
2710 0 2732 9 8 34 14 60 14 25 0 46 5 46 10 0 6 60 10 160 10 100 0 160 4
160 10 0 6 60 10 160 10 100 0 160 4 160 10 0 6 60 10 160 10 100 0 160 4 160
10 0 18 31 10 55 -15z m-2705 -25 c0 -6 42 -10 105 -10 63 0 105 -4 105 -10 0
-6 42 -10 106 -10 78 0 109 -4 120 -14 12 -12 14 -105 14 -590 l0 -576 -70 0
c-40 0 -70 4 -70 10 0 6 -16 10 -35 10 -19 0 -35 5 -35 10 0 6 -18 10 -40 10
-22 0 -40 5 -40 10 0 6 -13 10 -30 10 -16 0 -30 5 -30 10 0 6 -16 10 -35 10
-19 0 -35 5 -35 10 0 6 -13 10 -30 10 -16 0 -30 5 -30 10 0 6 -11 10 -25 10
-14 0 -25 5 -25 10 0 6 -13 10 -30 10 -20 0 -30 5 -30 15 0 8 -4 15 -10 15
-16 0 -14 1017 3 1035 14 17 147 21 147 5z"/>
</g>
</svg>
